<?xml version="1.0" standalone="no"?>
<!DOCTYPE svg PUBLIC "-//W3C//DTD SVG 20010904//EN"
"http://www.w3.org/TR/2001/REC-SVG-20010904/DTD/svg10.dtd">
<svg version="1.0" xmlns="http://www.w3.org/2000/svg"
width="500.000000pt" height="500.000000pt" viewBox="0 0 500.000000 500.000000"
preserveAspectRatio="xMidYMid meet">

<g transform="translate(0.000000,500.000000) scale(0.100000,-0.100000)"
fill="#000000" stroke="none">
<path d="M2905 3530 c-87 -14 -211 -56 -285 -97 -123 -69 -230 -204 -230 -292
0 -30 -2 -33 -22 -27 -122 34 -420 33 -552 -3 -374 -100 -542 -390 -363 -625
119 -158 335 -247 607 -251 l135 -3 60 -40 c76 -51 191 -110 231 -118 l31 -6
-18 109 c-10 59 -19 115 -18 123 0 8 27 28 60 44 33 15 86 49 117 76 32 26 89
62 127 81 39 19 104 57 145 83 l75 49 100 -2 c297 -6 565 115 666 301 32 58
34 69 34 153 0 79 -4 96 -28 143 -70 133 -217 234 -412 284 -92 23 -359 33
-460 18z m455 -40 c178 -43 326 -142 391 -262 31 -57 34 -71 34 -143 0 -72 -3
-86 -34 -143 -44 -81 -121 -150 -225 -202 -122 -59 -224 -82 -391 -85 l-140
-2 -70 -45 c-63 -41 -167 -98 -179 -98 -2 0 7 42 20 93 13 50 24 95 24 99 0 4
-35 25 -77 47 -333 174 -327 509 12 679 72 36 176 69 260 82 89 14 277 4 375
-20z"/>
<path d="M2872 3153 c-15 -6 -42 -56 -42 -78 0 -25 55 -75 83 -75 42 0 77 36
77 79 0 61 -59 98 -118 74z"/>
<path d="M3109 3147 c-45 -34 -46 -92 -2 -127 34 -26 66 -25 99 3 35 31 37 77
4 112 -26 27 -74 33 -101 12z"/>
<path d="M3335 3135 c-16 -15 -25 -36 -25 -55 0 -19 9 -40 25 -55 15 -16 36
-25 55 -25 19 0 40 9 55 25 16 15 25 36 25 55 0 19 -9 40 -25 55 -15 16 -36
25 -55 25 -19 0 -40 -9 -55 -25z"/>
<path d="M1751 1976 c-13 -17 -101 -269 -101 -289 0 -23 28 -33 44 -16 7 8 30
61 51 119 40 114 66 153 87 132 10 -10 6 -32 -21 -105 -44 -119 -48 -145 -26
-153 26 -10 40 12 80 128 39 111 66 151 87 130 9 -9 3 -35 -21 -106 -34 -97
-34 -128 -3 -145 22 -11 154 -11 169 1 7 6 19 5 32 -1 27 -15 96 -14 109 2 5
6 20 41 32 77 26 72 45 99 59 85 6 -6 3 -30 -8 -64 -10 -29 -16 -62 -13 -73 7
-28 47 -44 80 -32 18 7 36 7 55 0 20 -7 34 -7 48 2 16 10 27 10 55 0 30 -11
40 -10 63 3 24 14 31 14 54 3 16 -9 51 -13 98 -11 l74 3 27 74 c43 116 87 142
53 31 -10 -33 -15 -67 -12 -75 10 -26 54 -41 86 -30 18 7 34 7 49 1 15 -7 30
-6 48 2 20 9 30 9 40 0 8 -7 27 -9 46 -5 41 8 55 8 96 0 39 -8 74 13 102 59
25 40 25 57 1 57 -11 0 -28 -15 -40 -35 -15 -25 -27 -35 -46 -35 -29 0 -30 7
-6 75 13 37 24 51 42 55 28 7 39 40 14 40 -14 0 -16 5 -10 28 15 52 12 77 -10
77 -15 0 -24 -13 -39 -52 -13 -38 -24 -53 -37 -53 -26 0 -35 -21 -15 -35 16
-12 15 -17 -7 -71 -17 -44 -29 -60 -45 -62 -12 -2 -22 -1 -22 1 0 3 11 35 25
71 14 37 25 73 25 80 0 17 -27 29 -43 19 -7 -4 -27 -6 -45 -4 -46 4 -67 -18
-93 -96 -20 -60 -40 -85 -57 -69 -3 4 1 29 11 55 9 27 17 56 17 64 0 23 -28
47 -55 47 l-24 0 16 46 c12 34 13 48 4 57 -22 22 -43 -8 -82 -118 -41 -117
-70 -155 -115 -155 -47 0 -66 18 -59 53 9 43 44 139 57 154 19 23 41 16 34
-11 -4 -15 0 -28 10 -37 14 -11 19 -10 35 10 27 33 24 66 -7 90 -33 26 -74 27
-106 1 -26 -20 -84 -166 -90 -225 -2 -22 -9 -31 -25 -33 l-23 -3 27 75 c21 60
24 79 15 88 -21 21 -44 -4 -66 -69 -23 -65 -41 -93 -62 -93 -9 0 -7 18 12 72
26 78 25 98 -4 98 -14 0 -26 -19 -48 -77 -27 -71 -54 -106 -70 -90 -4 3 1 26
10 50 20 52 21 91 3 106 -8 6 -38 10 -67 8 l-52 -2 -27 -74 c-25 -69 -51 -104
-66 -89 -4 4 3 38 16 76 24 75 21 109 -9 97 -9 -4 -33 -7 -52 -6 -49 2 -66
-14 -94 -89 -22 -61 -47 -92 -61 -78 -4 4 10 54 31 113 31 88 35 110 26 130
-14 30 -56 42 -95 27 -18 -7 -36 -8 -46 -3 -22 12 -120 9 -130 -3z m379 -159
c0 -29 -33 -107 -44 -107 -27 0 -26 10 9 108 6 16 35 16 35 -1z m990 -12 c0
-38 -27 -95 -44 -95 -20 0 -20 4 -1 68 17 56 45 72 45 27z"/>
</g>
</svg>
